<svg xmlns="http://www.w3.org/2000/svg" viewBox="0 0 320.8 488.37"><defs><style>.cls-1,.cls-3{fill:#043594;}.cls-2{fill:none;}.cls-2,.cls-3{stroke:#fff;stroke-miterlimit:10;stroke-width:5px;}</style></defs><title>Asset 1</title><g id="Layer_2" data-name="Layer 2"><g id="Layer_2-2" data-name="Layer 2"><path class="cls-1" d="M286.8,324.94c-5.47-75.21-74-131.52-153.13-125.77S-5.12,270.56.35,345.77s74,131.52,153.13,125.77S292.27,400.15,286.8,324.94ZM242.51,338c-2.08,65.51-45.45,117.3-96.87,115.67S54.22,397.62,56.29,332.11s45.45-117.3,96.87-115.67S244.59,272.5,242.51,338Z"/></g><g id="Layer_3" data-name="Layer 3"><path d="M151.26,241.14c4.11,25.3,8.37,56.4,11.54,92.31,12.31-5.11,23.13-9.08,31.87-12.09,21.36-7.34,38-11.6,44.51-13.19,5.89-1.45,10.83-2.55,14.29-3.3C246,294.22,234,277.06,218.84,256c-20.73-28.89-30.27-41.48-49.45-68.13-9.82-13.65-24.5-34.22-42.31-59.89,2.79,10.31,6.25,23.75,9.89,39.56C138.84,175.66,145.11,203.34,151.26,241.14Zm-2.75,101.65L106.2,9.27a206.17,206.17,0,0,0-11,31.87c-5,19.46-5.64,34-6.74,52.71-2.85,48.38-2.59,22-4.8,67.62-2,41.63-2.81,75.53-3.3,101.65-.6,32-1.14,74.13-1.1,124.18a274.14,274.14,0,0,1,69.23-44.51Zm74.18-22C196.06,332.3,160.24,348,121,378a395.65,395.65,0,0,0-37.36,32.42,59.55,59.55,0,0,0,19.78,22.53c9.1-5.48,21.58-12.65,36.81-20.33C155,405.15,171.12,397,193,389.49A332.36,332.36,0,0,1,248,375.76a108,108,0,0,0,35.71-77.47A610.7,610.7,0,0,0,222.68,320.81Z"/><path class="cls-2" d="M151.26,241.14c4.11,25.3,8.37,56.4,11.54,92.31,12.31-5.11,23.13-9.08,31.87-12.09,21.36-7.34,38-11.6,44.51-13.19,5.89-1.45,10.83-2.55,14.29-3.3C246,294.22,234,277.06,218.84,256c-20.73-28.89-30.27-41.48-49.45-68.13-9.82-13.65-24.5-34.22-42.31-59.89,2.79,10.31,6.25,23.75,9.89,39.56C138.84,175.66,145.11,203.34,151.26,241.14Zm-2.75,101.65L106.2,9.27a206.17,206.17,0,0,0-11,31.87c-5,19.46-5.64,34-6.74,52.71-2.85,48.38-2.59,22-4.8,67.62-2,41.63-2.81,75.53-3.3,101.65-.6,32-1.14,74.13-1.1,124.18a274.14,274.14,0,0,1,69.23-44.51Zm74.18-22C196.06,332.3,160.24,348,121,378a395.65,395.65,0,0,0-37.36,32.42,59.55,59.55,0,0,0,19.78,22.53c9.1-5.48,21.58-12.65,36.81-20.33C155,405.15,171.12,397,193,389.49A332.36,332.36,0,0,1,248,375.76a108,108,0,0,0,35.71-77.47A610.7,610.7,0,0,0,222.68,320.81Z"/></g><g id="Layer_4" data-name="Layer 4"><path class="cls-3" d="M306.75,476.31a182.5,182.5,0,0,1-40.11,8.24c-17.86,1.62-26.79,2.42-37.36-1.65-10.17-3.92-26-13.8-35.16-29.12-2.3-3.84-5.24-9.77-12.09-14.29-5.15-3.39-10.33-4.54-14.84-5.49-7.84-1.66-13.89-1.41-20.33-1.1a125.45,125.45,0,0,0-28.57,4.95c-2.29.64-4.18,1.23-5.49,1.65L108.95,434a140.59,140.59,0,0,1,24.73-14.29,138.31,138.31,0,0,1,34.62-10.44,134.62,134.62,0,0,1,38.46-.55,14.32,14.32,0,0,1,3.85-4.4c7.82-5.84,18.93-.94,19.78-.55-.87-3.05-.32-6.28,1.65-8.24,2.9-2.9,8.7-2.88,12.64,1.1,6.51-3.61,11.55-7.53,11-11s-6.32-4.6-6-5.49c.43-1.42,15.17.7,30.22,7.69,7.07,3.28,12.26,6.73,15.38,12.64.36.69,3.1,5.86,1.65,7.14-2.45,2.18-12-11.17-26.37-12.09-.63,0-12-.61-19.23,6.59-11,11-5.51,33.12,1.1,45.05C267.33,474.22,303.12,476.16,306.75,476.31Z"/></g></g></svg>